# xmcd
#
# Track frame offsets: 
#        150
#        16460
#        33543
#        41971
#        52580
#        64851
#        77778
#        93192
#        107983
#        123855
#        135408
#        147630
#        157877
#        170729
#        181612
#        192850
#        210099
#        225268
#        245925
#        265149
#        278232
#        297303
#
# Disc length: 4301 seconds
#
# Revision: 1
# Processed by: cddbd v1.5.2PL0 Copyright (c) Steve Scherf et al.
# Submitted via: ExactAudioCopyFreeDBPlugin 1.0
#
DISCID=3310cb16
DTITLE=Various Artist - The XL and Sound of Memphis Story
DYEAR=2007
DGENRE=Soul
TTITLE0=Spencer Wiggins - I Can't Be Satisfied
TTITLE1=The Minits - Last Mile of the Way
TTITLE2=Barbara and The Browns - Play Thing
TTITLE3=Richard and Walter - Love Just Ain't There
TTITLE4=William Bollinger - You Can Lead Your Woman to the Altar
TTITLE5=Ann Hodge - Shower of Tears
TTITLE6=The Ovations - Take It from Someone Who Knows
TTITLE7=Dan Greer - Thanks to You
TTITLE8=George Jackson - Talking About the Love I Have for You
TTITLE9=The Minits - Still a Part of Me
TTITLE10=Dan Greer - Hook Line and Sinker
TTITLE11=Lou Roberts - Everything You Always Wanted to Know About Love
TTITLE12=Barbara and The Browns - Pity a Fool
TTITLE13=Ann Hodge - You're Welcome Back
TTITLE14=Rudolph Taylor - Tell Him Tonight
TTITLE15=Billy Cee and The Freedom Express - Hanging Around Your Doorste
TTITLE15=p
TTITLE16=Vision - Let the Moment Last
TTITLE17=Spencer Wiggins - Best Thing I Ever Had
TTITLE18=George Jackson - Walking the City Streets
TTITLE19=The Ovations - Don't Break Your Promise
TTITLE20=The Sweeteens - I'm Your Woman (You're My Man)
TTITLE21=The Jacksonians - California Dreamin'
EXTD=
EXTT0=
EXTT1=
EXTT2=
EXTT3=
EXTT4=
EXTT5=
EXTT6=
EXTT7=
EXTT8=
EXTT9=
EXTT10=
EXTT11=
EXTT12=
EXTT13=
EXTT14=
EXTT15=
EXTT16=
EXTT17=
EXTT18=
EXTT19=
EXTT20=
EXTT21=
PLAYORDER=
